<mxfile host="app.diagrams.net" agent="Mozilla/5.0 (Macintosh; Intel Mac OS X 10_15_7) AppleWebKit/537.36 (KHTML, like Gecko) Chrome/138.0.0.0 Safari/537.36" version="27.2.0">
  <diagram id="Ht1M8jgEwFfnCIfOTk4-" name="Page-1">
    <mxGraphModel dx="1234" dy="824" grid="1" gridSize="10" guides="1" tooltips="1" connect="1" arrows="1" fold="1" page="1" pageScale="1" pageWidth="1169" pageHeight="827" math="0" shadow="0">
      <root>
        <mxCell id="0" />
        <mxCell id="1" parent="0" />
        <mxCell id="-SwOJ4ZzwDQcredPTqo0-107" value="Auto Scaling" style="fontStyle=0;verticalAlign=top;align=center;spacingTop=-2;fillColor=none;rounded=0;whiteSpace=wrap;html=1;strokeColor=#FFB366;strokeWidth=1;dashed=1;container=1;collapsible=0;expand=0;recursiveResize=0;" vertex="1" parent="1">
          <mxGeometry x="650" y="357" width="170" height="313" as="geometry" />
        </mxCell>
        <mxCell id="-SwOJ4ZzwDQcredPTqo0-1" value="AWS Cloud" style="points=[[0,0],[0.25,0],[0.5,0],[0.75,0],[1,0],[1,0.25],[1,0.5],[1,0.75],[1,1],[0.75,1],[0.5,1],[0.25,1],[0,1],[0,0.75],[0,0.5],[0,0.25]];outlineConnect=0;html=1;whiteSpace=wrap;fontSize=12;fontStyle=0;container=1;pointerEvents=0;collapsible=0;recursiveResize=0;shape=mxgraph.aws4.group;grIcon=mxgraph.aws4.group_aws_cloud_alt;fillColor=none;verticalAlign=top;align=left;spacingLeft=30;dashed=0;" vertex="1" parent="1">
          <mxGeometry x="160" y="67" width="740" height="693" as="geometry" />
        </mxCell>
        <mxCell id="-SwOJ4ZzwDQcredPTqo0-58" value="Region A" style="points=[[0,0],[0.25,0],[0.5,0],[0.75,0],[1,0],[1,0.25],[1,0.5],[1,0.75],[1,1],[0.75,1],[0.5,1],[0.25,1],[0,1],[0,0.75],[0,0.5],[0,0.25]];outlineConnect=0;gradientColor=none;html=1;whiteSpace=wrap;fontSize=12;fontStyle=0;container=1;pointerEvents=0;collapsible=0;recursiveResize=0;shape=mxgraph.aws4.group;grIcon=mxgraph.aws4.group_region;strokeColor=#00A4A6;fillColor=none;verticalAlign=top;align=left;spacingLeft=30;fontColor=#147EBA;dashed=1;" vertex="1" parent="-SwOJ4ZzwDQcredPTqo0-1">
          <mxGeometry x="64" y="50" width="636" height="600" as="geometry" />
        </mxCell>
        <mxCell id="-SwOJ4ZzwDQcredPTqo0-83" value="&lt;font style=&quot;color: rgb(103, 171, 159);&quot;&gt;Availability Zone b&lt;/font&gt;" style="fillColor=none;dashed=1;verticalAlign=top;fontStyle=0;whiteSpace=wrap;html=1;strokeColor=#67AB9F;rotation=-90;" vertex="1" parent="-SwOJ4ZzwDQcredPTqo0-58">
          <mxGeometry x="311.12" y="81.88" width="162.25" height="432.5" as="geometry" />
        </mxCell>
        <mxCell id="-SwOJ4ZzwDQcredPTqo0-96" value="Security Group" style="fontStyle=0;verticalAlign=top;align=center;spacingTop=-2;fillColor=none;rounded=0;whiteSpace=wrap;html=1;strokeColor=#FF0000;strokeWidth=2;dashed=1;container=1;collapsible=0;expand=0;recursiveResize=0;" vertex="1" parent="-SwOJ4ZzwDQcredPTqo0-58">
          <mxGeometry x="26" y="212.75" width="124" height="157" as="geometry" />
        </mxCell>
        <mxCell id="-SwOJ4ZzwDQcredPTqo0-126" value="&lt;font style=&quot;color: rgb(166, 128, 184);&quot;&gt;Availability Zone b&lt;/font&gt;" style="fillColor=none;dashed=1;verticalAlign=top;fontStyle=0;whiteSpace=wrap;html=1;strokeColor=#A680B8;rotation=-90;" vertex="1" parent="-SwOJ4ZzwDQcredPTqo0-58">
          <mxGeometry x="311.115" y="269.005" width="162.25" height="432.5" as="geometry" />
        </mxCell>
        <mxCell id="-SwOJ4ZzwDQcredPTqo0-97" value="Security Group" style="fontStyle=0;verticalAlign=top;align=center;spacingTop=-2;fillColor=none;rounded=0;whiteSpace=wrap;html=1;strokeColor=#FF0000;strokeWidth=2;dashed=1;container=1;collapsible=0;expand=0;recursiveResize=0;" vertex="1" parent="-SwOJ4ZzwDQcredPTqo0-58">
          <mxGeometry x="227" y="87" width="164" height="463" as="geometry" />
        </mxCell>
        <mxCell id="-SwOJ4ZzwDQcredPTqo0-101" value="EC2" style="sketch=0;points=[[0,0,0],[0.25,0,0],[0.5,0,0],[0.75,0,0],[1,0,0],[0,1,0],[0.25,1,0],[0.5,1,0],[0.75,1,0],[1,1,0],[0,0.25,0],[0,0.5,0],[0,0.75,0],[1,0.25,0],[1,0.5,0],[1,0.75,0]];outlineConnect=0;fontColor=#232F3E;fillColor=#ED7100;strokeColor=#ffffff;dashed=0;verticalLabelPosition=bottom;verticalAlign=top;align=center;html=1;fontSize=12;fontStyle=0;aspect=fixed;shape=mxgraph.aws4.resourceIcon;resIcon=mxgraph.aws4.ec2;" vertex="1" parent="-SwOJ4ZzwDQcredPTqo0-97">
          <mxGeometry x="64" y="178" width="36" height="36" as="geometry" />
        </mxCell>
        <mxCell id="-SwOJ4ZzwDQcredPTqo0-114" value="Reader access" style="text;html=1;align=center;verticalAlign=middle;whiteSpace=wrap;rounded=0;" vertex="1" parent="-SwOJ4ZzwDQcredPTqo0-97">
          <mxGeometry x="104" y="166" width="60" height="30" as="geometry" />
        </mxCell>
        <mxCell id="-SwOJ4ZzwDQcredPTqo0-116" value="Reader access" style="text;html=1;align=center;verticalAlign=middle;whiteSpace=wrap;rounded=0;" vertex="1" parent="-SwOJ4ZzwDQcredPTqo0-97">
          <mxGeometry x="104" y="230" width="60" height="30" as="geometry" />
        </mxCell>
        <mxCell id="-SwOJ4ZzwDQcredPTqo0-82" value="Availability Zone a" style="fillColor=none;strokeColor=#147EBA;dashed=1;verticalAlign=top;fontStyle=0;fontColor=#147EBA;whiteSpace=wrap;html=1;rotation=-90;" vertex="1" parent="-SwOJ4ZzwDQcredPTqo0-58">
          <mxGeometry x="307.5" y="-105.5" width="165" height="430" as="geometry" />
        </mxCell>
        <mxCell id="-SwOJ4ZzwDQcredPTqo0-117" style="edgeStyle=orthogonalEdgeStyle;rounded=0;orthogonalLoop=1;jettySize=auto;html=1;" edge="1" parent="-SwOJ4ZzwDQcredPTqo0-58" source="-SwOJ4ZzwDQcredPTqo0-95" target="-SwOJ4ZzwDQcredPTqo0-100">
          <mxGeometry relative="1" as="geometry">
            <Array as="points">
              <mxPoint x="206" y="200" />
              <mxPoint x="206" y="142" />
            </Array>
          </mxGeometry>
        </mxCell>
        <mxCell id="-SwOJ4ZzwDQcredPTqo0-95" value="ALB" style="sketch=0;outlineConnect=0;fontColor=#232F3E;gradientColor=none;fillColor=#8C4FFF;strokeColor=none;dashed=0;verticalLabelPosition=bottom;verticalAlign=top;align=center;html=1;fontSize=12;fontStyle=0;aspect=fixed;pointerEvents=1;shape=mxgraph.aws4.application_load_balancer;" vertex="1" parent="-SwOJ4ZzwDQcredPTqo0-58">
          <mxGeometry x="56" y="262.75" width="57" height="57" as="geometry" />
        </mxCell>
        <mxCell id="-SwOJ4ZzwDQcredPTqo0-99" value="Auto Scaling group" style="points=[[0,0],[0.25,0],[0.5,0],[0.75,0],[1,0],[1,0.25],[1,0.5],[1,0.75],[1,1],[0.75,1],[0.5,1],[0.25,1],[0,1],[0,0.75],[0,0.5],[0,0.25]];outlineConnect=0;gradientColor=none;html=1;whiteSpace=wrap;fontSize=12;fontStyle=0;container=1;pointerEvents=0;collapsible=0;recursiveResize=0;shape=mxgraph.aws4.groupCenter;grIcon=mxgraph.aws4.group_auto_scaling_group;grStroke=1;strokeColor=#D86613;fillColor=none;verticalAlign=top;align=center;fontColor=#D86613;dashed=1;spacingTop=25;" vertex="1" parent="-SwOJ4ZzwDQcredPTqo0-58">
          <mxGeometry x="219" y="37" width="182" height="523" as="geometry" />
        </mxCell>
        <mxCell id="-SwOJ4ZzwDQcredPTqo0-100" value="EC2" style="sketch=0;points=[[0,0,0],[0.25,0,0],[0.5,0,0],[0.75,0,0],[1,0,0],[0,1,0],[0.25,1,0],[0.5,1,0],[0.75,1,0],[1,1,0],[0,0.25,0],[0,0.5,0],[0,0.75,0],[1,0.25,0],[1,0.5,0],[1,0.75,0]];outlineConnect=0;fontColor=#232F3E;fillColor=#ED7100;strokeColor=#ffffff;dashed=0;verticalLabelPosition=bottom;verticalAlign=top;align=center;html=1;fontSize=12;fontStyle=0;aspect=fixed;shape=mxgraph.aws4.resourceIcon;resIcon=mxgraph.aws4.ec2;" vertex="1" parent="-SwOJ4ZzwDQcredPTqo0-99">
          <mxGeometry x="72" y="87" width="36" height="36" as="geometry" />
        </mxCell>
        <mxCell id="-SwOJ4ZzwDQcredPTqo0-119" style="edgeStyle=orthogonalEdgeStyle;rounded=0;orthogonalLoop=1;jettySize=auto;html=1;dashed=1;strokeColor=#FF9933;" edge="1" parent="-SwOJ4ZzwDQcredPTqo0-58" source="-SwOJ4ZzwDQcredPTqo0-102" target="-SwOJ4ZzwDQcredPTqo0-105">
          <mxGeometry relative="1" as="geometry">
            <Array as="points">
              <mxPoint x="519" y="203" />
              <mxPoint x="470" y="203" />
            </Array>
          </mxGeometry>
        </mxCell>
        <mxCell id="-SwOJ4ZzwDQcredPTqo0-120" style="edgeStyle=orthogonalEdgeStyle;rounded=0;orthogonalLoop=1;jettySize=auto;html=1;dashed=1;strokeColor=#FF9933;" edge="1" parent="-SwOJ4ZzwDQcredPTqo0-58" source="-SwOJ4ZzwDQcredPTqo0-102" target="-SwOJ4ZzwDQcredPTqo0-106">
          <mxGeometry relative="1" as="geometry">
            <Array as="points">
              <mxPoint x="519" y="203" />
              <mxPoint x="550" y="203" />
            </Array>
          </mxGeometry>
        </mxCell>
        <mxCell id="-SwOJ4ZzwDQcredPTqo0-134" style="edgeStyle=orthogonalEdgeStyle;rounded=0;orthogonalLoop=1;jettySize=auto;html=1;strokeColor=#FF9933;dashed=1;" edge="1" parent="-SwOJ4ZzwDQcredPTqo0-58" source="-SwOJ4ZzwDQcredPTqo0-102" target="-SwOJ4ZzwDQcredPTqo0-128">
          <mxGeometry relative="1" as="geometry">
            <Array as="points">
              <mxPoint x="626" y="100" />
              <mxPoint x="626" y="476" />
            </Array>
          </mxGeometry>
        </mxCell>
        <mxCell id="-SwOJ4ZzwDQcredPTqo0-135" style="edgeStyle=orthogonalEdgeStyle;rounded=0;orthogonalLoop=1;jettySize=auto;html=1;strokeColor=#FF9933;dashed=1;" edge="1" parent="-SwOJ4ZzwDQcredPTqo0-58" source="-SwOJ4ZzwDQcredPTqo0-102" target="-SwOJ4ZzwDQcredPTqo0-127">
          <mxGeometry relative="1" as="geometry">
            <Array as="points">
              <mxPoint x="626" y="100" />
              <mxPoint x="626" y="393" />
              <mxPoint x="470" y="393" />
            </Array>
          </mxGeometry>
        </mxCell>
        <mxCell id="-SwOJ4ZzwDQcredPTqo0-102" value="&lt;span style=&quot;background-color: light-dark(#ffffff, var(--ge-dark-color, #121212));&quot;&gt;Master Writer/Reader&lt;br&gt;Mysql&lt;/span&gt;" style="sketch=0;outlineConnect=0;fillColor=#007FFF;strokeColor=#36393d;dashed=0;verticalLabelPosition=bottom;verticalAlign=top;align=center;html=1;fontSize=12;fontStyle=0;aspect=fixed;pointerEvents=1;shape=mxgraph.aws4.aurora_instance;" vertex="1" parent="-SwOJ4ZzwDQcredPTqo0-58">
          <mxGeometry x="494.5" y="75.5" width="48.5" height="48.5" as="geometry" />
        </mxCell>
        <mxCell id="-SwOJ4ZzwDQcredPTqo0-105" value="&lt;span style=&quot;background-color: light-dark(#ffffff, var(--ge-dark-color, #121212));&quot;&gt;Reader Mysql&lt;/span&gt;" style="sketch=0;outlineConnect=0;fillColor=#007FFF;strokeColor=#36393d;dashed=0;verticalLabelPosition=bottom;verticalAlign=top;align=center;html=1;fontSize=12;fontStyle=0;aspect=fixed;pointerEvents=1;shape=mxgraph.aws4.aurora_instance;" vertex="1" parent="-SwOJ4ZzwDQcredPTqo0-58">
          <mxGeometry x="446" y="267" width="48.5" height="48.5" as="geometry" />
        </mxCell>
        <mxCell id="-SwOJ4ZzwDQcredPTqo0-106" value="&lt;span style=&quot;background-color: light-dark(#ffffff, var(--ge-dark-color, #121212));&quot;&gt;Reader Mysql&lt;/span&gt;" style="sketch=0;outlineConnect=0;fillColor=#007FFF;strokeColor=#36393d;dashed=0;verticalLabelPosition=bottom;verticalAlign=top;align=center;html=1;fontSize=12;fontStyle=0;aspect=fixed;pointerEvents=1;shape=mxgraph.aws4.aurora_instance;" vertex="1" parent="-SwOJ4ZzwDQcredPTqo0-58">
          <mxGeometry x="526" y="265" width="48.5" height="48.5" as="geometry" />
        </mxCell>
        <mxCell id="-SwOJ4ZzwDQcredPTqo0-109" style="edgeStyle=orthogonalEdgeStyle;rounded=0;orthogonalLoop=1;jettySize=auto;html=1;" edge="1" parent="-SwOJ4ZzwDQcredPTqo0-58" source="-SwOJ4ZzwDQcredPTqo0-100" target="-SwOJ4ZzwDQcredPTqo0-102">
          <mxGeometry relative="1" as="geometry">
            <Array as="points">
              <mxPoint x="416" y="142" />
              <mxPoint x="416" y="100" />
            </Array>
          </mxGeometry>
        </mxCell>
        <mxCell id="-SwOJ4ZzwDQcredPTqo0-110" value="Writer/Reader access" style="text;html=1;align=center;verticalAlign=middle;whiteSpace=wrap;rounded=0;" vertex="1" parent="-SwOJ4ZzwDQcredPTqo0-58">
          <mxGeometry x="426" y="67" width="60" height="30" as="geometry" />
        </mxCell>
        <mxCell id="-SwOJ4ZzwDQcredPTqo0-111" style="edgeStyle=orthogonalEdgeStyle;rounded=0;orthogonalLoop=1;jettySize=auto;html=1;" edge="1" parent="-SwOJ4ZzwDQcredPTqo0-58" source="-SwOJ4ZzwDQcredPTqo0-101" target="-SwOJ4ZzwDQcredPTqo0-102">
          <mxGeometry relative="1" as="geometry">
            <Array as="points">
              <mxPoint x="309" y="213" />
              <mxPoint x="416" y="213" />
              <mxPoint x="416" y="100" />
            </Array>
          </mxGeometry>
        </mxCell>
        <mxCell id="-SwOJ4ZzwDQcredPTqo0-112" style="edgeStyle=orthogonalEdgeStyle;rounded=0;orthogonalLoop=1;jettySize=auto;html=1;" edge="1" parent="-SwOJ4ZzwDQcredPTqo0-58" source="-SwOJ4ZzwDQcredPTqo0-101" target="-SwOJ4ZzwDQcredPTqo0-105">
          <mxGeometry relative="1" as="geometry" />
        </mxCell>
        <mxCell id="-SwOJ4ZzwDQcredPTqo0-115" style="edgeStyle=orthogonalEdgeStyle;rounded=0;orthogonalLoop=1;jettySize=auto;html=1;" edge="1" parent="-SwOJ4ZzwDQcredPTqo0-58" source="-SwOJ4ZzwDQcredPTqo0-101">
          <mxGeometry relative="1" as="geometry">
            <mxPoint x="550" y="333" as="targetPoint" />
            <Array as="points">
              <mxPoint x="309" y="353" />
              <mxPoint x="550" y="353" />
            </Array>
          </mxGeometry>
        </mxCell>
        <mxCell id="-SwOJ4ZzwDQcredPTqo0-118" style="edgeStyle=orthogonalEdgeStyle;rounded=0;orthogonalLoop=1;jettySize=auto;html=1;entryX=0;entryY=0.75;entryDx=0;entryDy=0;entryPerimeter=0;" edge="1" parent="-SwOJ4ZzwDQcredPTqo0-58" source="-SwOJ4ZzwDQcredPTqo0-95" target="-SwOJ4ZzwDQcredPTqo0-101">
          <mxGeometry relative="1" as="geometry" />
        </mxCell>
        <mxCell id="-SwOJ4ZzwDQcredPTqo0-121" value="Replication" style="text;html=1;align=center;verticalAlign=middle;whiteSpace=wrap;rounded=0;" vertex="1" parent="-SwOJ4ZzwDQcredPTqo0-58">
          <mxGeometry x="483" y="198" width="60" height="30" as="geometry" />
        </mxCell>
        <mxCell id="-SwOJ4ZzwDQcredPTqo0-123" value="EC2" style="sketch=0;points=[[0,0,0],[0.25,0,0],[0.5,0,0],[0.75,0,0],[1,0,0],[0,1,0],[0.25,1,0],[0.5,1,0],[0.75,1,0],[1,1,0],[0,0.25,0],[0,0.5,0],[0,0.75,0],[1,0.25,0],[1,0.5,0],[1,0.75,0]];outlineConnect=0;fontColor=#232F3E;fillColor=#ED7100;strokeColor=#ffffff;dashed=0;verticalLabelPosition=bottom;verticalAlign=top;align=center;html=1;fontSize=12;fontStyle=0;aspect=fixed;shape=mxgraph.aws4.resourceIcon;resIcon=mxgraph.aws4.ec2;" vertex="1" parent="-SwOJ4ZzwDQcredPTqo0-58">
          <mxGeometry x="290.995" y="452.125" width="36" height="36" as="geometry" />
        </mxCell>
        <mxCell id="-SwOJ4ZzwDQcredPTqo0-124" value="Reader access" style="text;html=1;align=center;verticalAlign=middle;whiteSpace=wrap;rounded=0;" vertex="1" parent="-SwOJ4ZzwDQcredPTqo0-58">
          <mxGeometry x="330.995" y="440.125" width="60" height="30" as="geometry" />
        </mxCell>
        <mxCell id="-SwOJ4ZzwDQcredPTqo0-125" value="Reader access" style="text;html=1;align=center;verticalAlign=middle;whiteSpace=wrap;rounded=0;" vertex="1" parent="-SwOJ4ZzwDQcredPTqo0-58">
          <mxGeometry x="330.995" y="504.125" width="60" height="30" as="geometry" />
        </mxCell>
        <mxCell id="-SwOJ4ZzwDQcredPTqo0-127" value="&lt;span style=&quot;background-color: light-dark(#ffffff, var(--ge-dark-color, #121212));&quot;&gt;Reader Mysql&lt;/span&gt;" style="sketch=0;outlineConnect=0;fillColor=#007FFF;strokeColor=#36393d;dashed=0;verticalLabelPosition=bottom;verticalAlign=top;align=center;html=1;fontSize=12;fontStyle=0;aspect=fixed;pointerEvents=1;shape=mxgraph.aws4.aurora_instance;" vertex="1" parent="-SwOJ4ZzwDQcredPTqo0-58">
          <mxGeometry x="445.9950000000001" y="454.125" width="48.5" height="48.5" as="geometry" />
        </mxCell>
        <mxCell id="-SwOJ4ZzwDQcredPTqo0-128" value="&lt;span style=&quot;background-color: light-dark(#ffffff, var(--ge-dark-color, #121212));&quot;&gt;Reader Mysql&lt;/span&gt;" style="sketch=0;outlineConnect=0;fillColor=#007FFF;strokeColor=#36393d;dashed=0;verticalLabelPosition=bottom;verticalAlign=top;align=center;html=1;fontSize=12;fontStyle=0;aspect=fixed;pointerEvents=1;shape=mxgraph.aws4.aurora_instance;" vertex="1" parent="-SwOJ4ZzwDQcredPTqo0-58">
          <mxGeometry x="525.9950000000001" y="452.125" width="48.5" height="48.5" as="geometry" />
        </mxCell>
        <mxCell id="-SwOJ4ZzwDQcredPTqo0-129" style="edgeStyle=orthogonalEdgeStyle;rounded=0;orthogonalLoop=1;jettySize=auto;html=1;" edge="1" parent="-SwOJ4ZzwDQcredPTqo0-58" source="-SwOJ4ZzwDQcredPTqo0-123" target="-SwOJ4ZzwDQcredPTqo0-127">
          <mxGeometry relative="1" as="geometry" />
        </mxCell>
        <mxCell id="-SwOJ4ZzwDQcredPTqo0-130" style="edgeStyle=orthogonalEdgeStyle;rounded=0;orthogonalLoop=1;jettySize=auto;html=1;" edge="1" parent="-SwOJ4ZzwDQcredPTqo0-58" source="-SwOJ4ZzwDQcredPTqo0-123">
          <mxGeometry relative="1" as="geometry">
            <mxPoint x="549.9950000000001" y="520.125" as="targetPoint" />
            <Array as="points">
              <mxPoint x="308.995" y="540.125" />
              <mxPoint x="549.9950000000001" y="540.125" />
            </Array>
          </mxGeometry>
        </mxCell>
        <mxCell id="-SwOJ4ZzwDQcredPTqo0-133" style="edgeStyle=orthogonalEdgeStyle;rounded=0;orthogonalLoop=1;jettySize=auto;html=1;entryX=0;entryY=0.75;entryDx=0;entryDy=0;entryPerimeter=0;" edge="1" parent="-SwOJ4ZzwDQcredPTqo0-58" target="-SwOJ4ZzwDQcredPTqo0-123">
          <mxGeometry relative="1" as="geometry">
            <mxPoint x="85" y="343" as="sourcePoint" />
            <Array as="points">
              <mxPoint x="85" y="479" />
            </Array>
          </mxGeometry>
        </mxCell>
        <mxCell id="-SwOJ4ZzwDQcredPTqo0-136" value="Replication" style="text;html=1;align=center;verticalAlign=middle;whiteSpace=wrap;rounded=0;" vertex="1" parent="-SwOJ4ZzwDQcredPTqo0-58">
          <mxGeometry x="565" y="385" width="60" height="30" as="geometry" />
        </mxCell>
        <mxCell id="-SwOJ4ZzwDQcredPTqo0-36" value="Web" style="outlineConnect=0;dashed=0;verticalLabelPosition=bottom;verticalAlign=top;align=center;html=1;shape=mxgraph.aws3.management_console;fillColor=#D2D3D3;gradientColor=none;" vertex="1" parent="1">
          <mxGeometry x="41.5" y="284" width="63" height="63" as="geometry" />
        </mxCell>
        <mxCell id="-SwOJ4ZzwDQcredPTqo0-38" style="edgeStyle=orthogonalEdgeStyle;rounded=0;orthogonalLoop=1;jettySize=auto;html=1;" edge="1" parent="1" source="-SwOJ4ZzwDQcredPTqo0-36" target="-SwOJ4ZzwDQcredPTqo0-95">
          <mxGeometry relative="1" as="geometry">
            <mxPoint x="260" y="240" as="targetPoint" />
            <Array as="points">
              <mxPoint x="73" y="290" />
            </Array>
          </mxGeometry>
        </mxCell>
      </root>
    </mxGraphModel>
  </diagram>
</mxfile>
